<svg xmlns="http://www.w3.org/2000/svg" viewBox="0 0 45 45"><defs><style>.cls-1{isolation:isolate;}.cls-2{mix-blend-mode:multiply;opacity:0.65;}.cls-3{fill:#fff;}</style></defs><g class="cls-1"><g id="Layer_2" data-name="Layer 2"><g id="Layer_1-2" data-name="Layer 1"><rect class="cls-2" width="45" height="45" rx="11.51"/><path class="cls-3" d="M31.85,28a9.83,9.83,0,0,1-3.32-7.46c0-3.48-1.55-5.55-4.43-6.09a1.11,1.11,0,0,0,0-.19,1.62,1.62,0,0,0-3.24,0,1.11,1.11,0,0,0,0,.19c-2.88.54-4.43,2.61-4.43,6.09A9.83,9.83,0,0,1,13.15,28,1.37,1.37,0,0,0,12.6,29a1.45,1.45,0,0,0,1.51,1.38h6.28a2.11,2.11,0,0,0,4.22,0h6.28A1.45,1.45,0,0,0,32.4,29,1.37,1.37,0,0,0,31.85,28Zm-9.09.24a2.3,2.3,0,0,0-.26,0,2.3,2.3,0,0,0-.26,0H16a12.34,12.34,0,0,0,2.67-7.7c0-2.87,1.11-4,3.83-4s3.83,1.17,3.83,4A12.34,12.34,0,0,0,29,28.19Z"/></g></g></g></svg>