<svg xmlns="http://www.w3.org/2000/svg" viewBox="0 0 45 45"><defs><style>.cls-1{isolation:isolate;}.cls-2{mix-blend-mode:multiply;opacity:0.65;}.cls-3{fill:#fff;}</style></defs><g class="cls-1"><g id="Layer_2" data-name="Layer 2"><g id="Layer_1-2" data-name="Layer 1"><rect class="cls-2" width="45" height="45" rx="11.51"/><path class="cls-3" d="M16,27.41a2.12,2.12,0,1,0,2.12,2.12A2.12,2.12,0,0,0,16,27.41Z"/><circle class="cls-3" cx="26.91" cy="29.53" r="2.12"/><path class="cls-3" d="M32.26,13.85a1.1,1.1,0,0,0-1.52-.33L28.47,15a2,2,0,0,0-1.33-.53H14.51a1.94,1.94,0,0,0-1.94,1.94v8.23a1.94,1.94,0,0,0,1.94,1.94H26.13a1.94,1.94,0,0,0,1.93-1.71L29,17.26l2.94-1.89A1.1,1.1,0,0,0,32.26,13.85ZM25.91,24.36H14.77V16.65H26.85Z"/></g></g></g></svg>