<svg xmlns="http://www.w3.org/2000/svg" viewBox="0 0 45 45"><defs><style>.cls-1{isolation:isolate;}.cls-2{mix-blend-mode:multiply;opacity:0.65;}.cls-3{fill:#fff;}</style></defs><g class="cls-1"><g id="Layer_2" data-name="Layer 2"><g id="Layer_1-2" data-name="Layer 1"><rect class="cls-2" width="45" height="45" rx="11.51"/><rect class="cls-3" x="18.36" y="16.83" width="8.27" height="2"/><rect class="cls-3" x="18.36" y="21.32" width="6.87" height="2"/><rect class="cls-3" x="18.36" y="25.81" width="4.92" height="2"/><path class="cls-3" d="M30.69,25V14.8a2.44,2.44,0,0,0-2.44-2.44H16.75A2.45,2.45,0,0,0,14.3,14.8v15a2.45,2.45,0,0,0,2.45,2.44H27a4,4,0,0,0,2.1.58A4.08,4.08,0,0,0,30.69,25ZM16.75,30.28a.44.44,0,0,1-.45-.44v-15a.45.45,0,0,1,.45-.44h11.5a.44.44,0,0,1,.44.44v9.91A4.08,4.08,0,0,0,25,28.78a3.93,3.93,0,0,0,.29,1.5Zm13.94-1.39-1.23,1.23-.91.91-.76-.75-.16-.16L26,28.44l.92-.92,1.68,1.69.14-.14,2-2,.54-.54.91.92Z"/></g></g></g></svg>