<svg xmlns="http://www.w3.org/2000/svg" viewBox="0 0 45 45"><defs><style>.cls-1{isolation:isolate;}.cls-2{mix-blend-mode:multiply;opacity:0.65;}.cls-3{fill:#fff;}</style></defs><g class="cls-1"><g id="Layer_2" data-name="Layer 2"><g id="Layer_1-2" data-name="Layer 1"><rect class="cls-2" width="45" height="45" rx="11.51"/><path class="cls-3" d="M32.11,31a14.49,14.49,0,0,0-5.49-7,6.42,6.42,0,1,0-8.24,0,14.49,14.49,0,0,0-5.49,7,1.09,1.09,0,0,0,.68,1.39,1.13,1.13,0,0,0,.36.06,1.11,1.11,0,0,0,1-.74c0-.05,1.69-4.85,5.8-6.48a6.36,6.36,0,0,0,3.46,0C28.3,26.81,30,31.58,30,31.67a1.11,1.11,0,0,0,1,.74,1.13,1.13,0,0,0,.36-.06A1.09,1.09,0,0,0,32.11,31ZM18.28,19a4.22,4.22,0,1,1,4.22,4.22A4.22,4.22,0,0,1,18.28,19Z"/></g></g></g></svg>